<?xml version="1.0" encoding="UTF-8"?>
<svg xmlns="http://www.w3.org/2000/svg"
     xmlns:xlink="http://www.w3.org/1999/xlink"
     version="1.2"
     width="203.2mm" height="203.2mm" viewBox="0 0 203.2 203.2"
     stroke="none"
     fill="#000000"
     stroke-width="0.3"
     font-size="3.88"
>
<g stroke-width="0.42" fill="#000000" fill-opacity="0.000" stroke="#D3D3D3" id="img-d120b03b-1">
  <g transform="translate(29.24,29.87)">
    <path fill="none" d="M1.44,-0.34 L -1.44 0.34" class="primitive"/>
  </g>
  <g transform="translate(111.01,111.15)">
    <path fill="none" d="M-0.18,-1.39 L 0.18 1.39" class="primitive"/>
  </g>
  <g transform="translate(172.18,140.97)">
    <path fill="none" d="M-11.46,-6.29 L 11.46 6.29" class="primitive"/>
  </g>
  <g transform="translate(168.76,144.15)">
    <path fill="none" d="M-8.57,-8.76 L 8.57 8.76" class="primitive"/>
  </g>
  <g transform="translate(162.19,146.59)">
    <path fill="none" d="M-3.21,-10.48 L 3.21 10.48" class="primitive"/>
  </g>
  <g transform="translate(34.79,45.19)">
    <path fill="none" d="M12.49,4.68 L -12.49 -4.68" class="primitive"/>
  </g>
  <g transform="translate(41.84,39.88)">
    <path fill="none" d="M6.46,8.65 L -6.46 -8.65" class="primitive"/>
  </g>
  <g transform="translate(34.17,52.76)">
    <path fill="none" d="M12.94,-1.49 L -12.94 1.49" class="primitive"/>
  </g>
  <g transform="translate(47.41,38.13)">
    <path fill="none" d="M2.06,9.86 L -2.06 -9.86" class="primitive"/>
  </g>
  <g transform="translate(33.51,48.78)">
    <path fill="none" d="M13.61,1.76 L -13.61 -1.76" class="primitive"/>
  </g>
  <g transform="translate(37.48,40.91)">
    <path fill="none" d="M10.25,8.15 L -10.25 -8.15" class="primitive"/>
  </g>
  <g transform="translate(182.85,151.88)">
    <path fill="none" d="M-1.23,1.14 L 1.23 -1.14" class="primitive"/>
  </g>
  <g transform="translate(107.73,81.85)">
    <path fill="none" d="M7.85,4.55 L -7.85 -4.55" class="primitive"/>
  </g>
  <g transform="translate(100.45,84.71)">
    <path fill="none" d="M14.77,2.66 L -14.77 -2.66" class="primitive"/>
  </g>
  <g transform="translate(114.31,97.34)">
    <path fill="none" d="M2.73,-6.67 L -2.73 6.67" class="primitive"/>
  </g>
  <g transform="translate(125.75,101.93)">
    <path fill="none" d="M-6.16,-11.4 L 6.16 11.4" class="primitive"/>
  </g>
  <g transform="translate(122.74,96.8)">
    <path fill="none" d="M-3.21,-6.23 L 3.21 6.23" class="primitive"/>
  </g>
  <g transform="translate(129.83,83.94)">
    <path fill="none" d="M-8.83,3 L 8.83 -3" class="primitive"/>
  </g>
  <g transform="translate(138.39,92.12)">
    <path fill="none" d="M-17.29,-3.6 L 17.29 3.6" class="primitive"/>
  </g>
  <g transform="translate(116.45,71.94)">
    <path fill="none" d="M1.4,12.98 L -1.4 -12.98" class="primitive"/>
  </g>
  <g transform="translate(107.23,89.59)">
    <path fill="none" d="M7.98,-1.23 L -7.98 1.23" class="primitive"/>
  </g>
  <g transform="translate(132.17,89.63)">
    <path fill="none" d="M-11.03,-1.36 L 11.03 1.36" class="primitive"/>
  </g>
  <g transform="translate(120.26,103.46)">
    <path fill="none" d="M-1.69,-12.59 L 1.69 12.59" class="primitive"/>
  </g>
  <g transform="translate(138.13,110.58)">
    <path fill="none" d="M-17.98,-20.43 L 17.98 20.43" class="primitive"/>
  </g>
  <g transform="translate(124.92,79.86)">
    <path fill="none" d="M-4.83,5.75 L 4.83 -5.75" class="primitive"/>
  </g>
  <g transform="translate(84.13,69.41)">
    <path fill="none" d="M31.41,17.06 L -31.41 -17.06" class="primitive"/>
  </g>
  <g transform="translate(106.64,97.78)">
    <path fill="none" d="M9.25,-7.93 L -9.25 7.93" class="primitive"/>
  </g>
  <g transform="translate(102.41,93.81)">
    <path fill="none" d="M12.96,-4.86 L -12.96 4.86" class="primitive"/>
  </g>
  <g transform="translate(115.19,78.27)">
    <path fill="none" d="M2.1,6.77 L -2.1 -6.77" class="primitive"/>
  </g>
  <g transform="translate(126.54,73.76)">
    <path fill="none" d="M-6.85,11.57 L 6.85 -11.57" class="primitive"/>
  </g>
  <g transform="translate(114.87,101.71)">
    <path fill="none" d="M2.61,-10.89 L -2.61 10.89" class="primitive"/>
  </g>
  <g transform="translate(131.47,76.81)">
    <path fill="none" d="M-11.01,9.17 L 11.01 -9.17" class="primitive"/>
  </g>
  <g transform="translate(130.8,99.61)">
    <path fill="none" d="M-10.43,-9.68 L 10.43 9.68" class="primitive"/>
  </g>
  <g transform="translate(139.32,87.41)">
    <path fill="none" d="M-18.16,0.42 L 18.16 -0.42" class="primitive"/>
  </g>
  <g transform="translate(129.38,92.89)">
    <path fill="none" d="M-8.48,-3.77 L 8.48 3.77" class="primitive"/>
  </g>
  <g transform="translate(102.18,79.52)">
    <path fill="none" d="M13.34,7 L -13.34 -7" class="primitive"/>
  </g>
  <g transform="translate(94.86,98.31)">
    <path fill="none" d="M20.57,-9.19 L -20.57 9.19" class="primitive"/>
  </g>
  <g transform="translate(109.68,77.75)">
    <path fill="none" d="M6.57,7.86 L -6.57 -7.86" class="primitive"/>
  </g>
  <g transform="translate(135.97,79.36)">
    <path fill="none" d="M-15.1,7.24 L 15.1 -7.24" class="primitive"/>
  </g>
  <g transform="translate(109.46,73.77)">
    <path fill="none" d="M7.14,11.58 L -7.14 -11.58" class="primitive"/>
  </g>
  <g transform="translate(120.95,74.69)">
    <path fill="none" d="M-2.16,10.28 L 2.16 -10.28" class="primitive"/>
  </g>
  <g transform="translate(99.42,89.31)">
    <path fill="none" d="M15.77,-1.18 L -15.77 1.18" class="primitive"/>
  </g>
  <g transform="translate(106.19,108.92)">
    <path fill="none" d="M10.5,-18.42 L -10.5 18.42" class="primitive"/>
  </g>
  <g transform="translate(137.18,83.53)">
    <path fill="none" d="M-16.09,3.7 L 16.09 -3.7" class="primitive"/>
  </g>
  <g transform="translate(135.15,96.38)">
    <path fill="none" d="M-14.3,-7.14 L 14.3 7.14" class="primitive"/>
  </g>
  <g transform="translate(132.91,66.05)">
    <path fill="none" d="M-13.06,19.37 L 13.06 -19.37" class="primitive"/>
  </g>
  <g transform="translate(107.96,102.15)">
    <path fill="none" d="M8.47,-11.82 L -8.47 11.82" class="primitive"/>
  </g>
  <g transform="translate(69.46,174.51)">
    <path fill="none" d="M5.1,-9.15 L -5.1 9.15" class="primitive"/>
  </g>
  <g transform="translate(143.38,94.62)">
    <path fill="none" d="M-0.84,0.99 L 0.84 -0.99" class="primitive"/>
  </g>
  <g transform="translate(18.21,43.04)">
    <path fill="none" d="M-0.27,0.77 L 0.27 -0.77" class="primitive"/>
  </g>
  <g transform="translate(17.59,50.61)">
    <path fill="none" d="M-0.17,-1.03 L 0.17 1.03" class="primitive"/>
  </g>
  <g transform="translate(56.39,115.67)">
    <path fill="none" d="M12.44,-5.7 L -12.44 5.7" class="primitive"/>
  </g>
  <g transform="translate(99.24,71.7)">
    <path fill="none" d="M0.67,-1.4 L -0.67 1.4" class="primitive"/>
  </g>
  <g transform="translate(106.7,68.11)">
    <path fill="none" d="M-2.53,-0.24 L 2.53 0.24" class="primitive"/>
  </g>
  <g transform="translate(100.97,63.61)">
    <path fill="none" d="M0.06,0.99 L -0.06 -0.99" class="primitive"/>
  </g>
  <g transform="translate(85.12,146.34)">
    <path fill="none" d="M7.65,-13.78 L -7.65 13.78" class="primitive"/>
  </g>
  <g transform="translate(159.48,33.56)">
    <path fill="none" d="M-9.61,8.63 L 9.61 -8.63" class="primitive"/>
  </g>
  <g transform="translate(152.66,30.57)">
    <path fill="none" d="M-3.98,10.82 L 3.98 -10.82" class="primitive"/>
  </g>
  <g transform="translate(96.43,112.02)">
    <path fill="none" d="M0.45,1.51 L -0.45 -1.51" class="primitive"/>
  </g>
  <g transform="translate(95.98,123.17)">
    <path fill="none" d="M1.01,-3.87 L -1.01 3.87" class="primitive"/>
  </g>
</g>
<g stroke-width="0.42" stroke="#D3D3D3" id="img-d120b03b-2">
  <g transform="translate(32.96,28.98)">
    <path fill="none" d="M3.25,2.2 L -5.16 1.23 1.91 -3.43" class="primitive"/>
  </g>
  <g transform="translate(110.51,107.28)">
    <path fill="none" d="M2.54,-3 L 0.67 5.26 -3.21 -2.26" class="primitive"/>
  </g>
  <g transform="translate(178.99,144.71)">
    <path fill="none" d="M-0.93,-3.81 L 4.65 2.55 -3.72 1.26" class="primitive"/>
  </g>
  <g transform="translate(173.63,149.13)">
    <path fill="none" d="M0.22,-3.92 L 3.71 3.79 -3.92 0.13" class="primitive"/>
  </g>
  <g transform="translate(163.85,152)">
    <path fill="none" d="M1.99,-3.38 L 1.56 5.07 -3.55 -1.69" class="primitive"/>
  </g>
  <g transform="translate(27.26,42.37)">
    <path fill="none" d="M1.47,3.64 L -4.97 -1.86 3.5 -1.78" class="primitive"/>
  </g>
  <g transform="translate(38.55,35.48)">
    <path fill="none" d="M-0.73,3.86 L -3.17 -4.25 3.91 0.39" class="primitive"/>
  </g>
  <g transform="translate(26.49,53.64)">
    <path fill="none" d="M2.97,2.57 L -5.27 0.61 2.3 -3.18" class="primitive"/>
  </g>
  <g transform="translate(46.44,33.46)">
    <path fill="none" d="M-2.29,3.19 L -1.08 -5.19 3.38 2" class="primitive"/>
  </g>
  <g transform="translate(25.16,47.7)">
    <path fill="none" d="M2.26,3.21 L -5.26 -0.68 3 -2.53" class="primitive"/>
  </g>
  <g transform="translate(31.38,36.07)">
    <path fill="none" d="M0.28,3.92 L -4.15 -3.3 3.88 -0.62" class="primitive"/>
  </g>
  <g transform="translate(180.19,154.35)">
    <path fill="none" d="M-3.91,-0.31 L 3.88 -3.61 0.03 3.93" class="primitive"/>
  </g>
  <g transform="translate(104.47,79.96)">
    <path fill="none" d="M0.84,3.84 L -4.59 -2.66 3.75 -1.18" class="primitive"/>
  </g>
  <g transform="translate(90.9,82.99)">
    <path fill="none" d="M2.1,3.32 L -5.22 -0.94 3.12 -2.38" class="primitive"/>
  </g>
  <g transform="translate(113.59,99.11)">
    <path fill="none" d="M3.68,-1.36 L -2.01 4.91 -1.68 -3.55" class="primitive"/>
  </g>
  <g transform="translate(129.39,108.66)">
    <path fill="none" d="M1.29,-3.71 L 2.52 4.67 -3.81 -0.96" class="primitive"/>
  </g>
  <g transform="translate(123.52,98.31)">
    <path fill="none" d="M1.36,-3.68 L 2.43 4.72 -3.79 -1.03" class="primitive"/>
  </g>
  <g transform="translate(133.63,82.65)">
    <path fill="none" d="M-3.44,-1.89 L 5.02 -1.71 -1.58 3.59" class="primitive"/>
  </g>
  <g transform="translate(150.5,94.64)">
    <path fill="none" d="M-2.01,-3.38 L 5.19 1.08 -3.19 2.29" class="primitive"/>
  </g>
  <g transform="translate(115.62,64.23)">
    <path fill="none" d="M-2.6,2.95 L -0.57 -5.27 3.16 2.33" class="primitive"/>
  </g>
  <g transform="translate(104.49,90.02)">
    <path fill="none" d="M3.06,2.46 L -5.24 0.81 2.18 -3.27" class="primitive"/>
  </g>
  <g transform="translate(137.94,90.34)">
    <path fill="none" d="M-2.28,-3.2 L 5.26 0.65 -2.99 2.55" class="primitive"/>
  </g>
  <g transform="translate(121.24,110.79)">
    <path fill="none" d="M2.52,-3.01 L 0.71 5.26 -3.22 -2.24" class="primitive"/>
  </g>
  <g transform="translate(152.61,127.02)">
    <path fill="none" d="M0.42,-3.9 L 3.5 3.98 -3.93 -0.08" class="primitive"/>
  </g>
  <g transform="translate(126.34,78.17)">
    <path fill="none" d="M-3.92,0.17 L 3.41 -4.06 0.51 3.89" class="primitive"/>
  </g>
  <g transform="translate(57.37,54.88)">
    <path fill="none" d="M0.95,3.81 L -4.66 -2.53 3.71 -1.28" class="primitive"/>
  </g>
  <g transform="translate(101.42,102.25)">
    <path fill="none" d="M3.9,0.47 L -4.03 3.45 0.13 -3.92" class="primitive"/>
  </g>
  <g transform="translate(94.42,96.81)">
    <path fill="none" d="M3.5,1.78 L -4.97 1.86 1.47 -3.64" class="primitive"/>
  </g>
  <g transform="translate(114.66,76.56)">
    <path fill="none" d="M-1.98,3.39 L -1.57 -5.07 3.55 1.68" class="primitive"/>
  </g>
  <g transform="translate(130.69,66.76)">
    <path fill="none" d="M-3.84,0.81 L 2.7 -4.56 1.14 3.76" class="primitive"/>
  </g>
  <g transform="translate(113.5,107.44)">
    <path fill="none" d="M3.43,-1.91 L -1.23 5.16 -2.2 -3.25" class="primitive"/>
  </g>
  <g transform="translate(138.41,71.03)">
    <path fill="none" d="M-3.89,-0.53 L 4.07 -3.4 -0.18 3.92" class="primitive"/>
  </g>
  <g transform="translate(137.34,105.69)">
    <path fill="none" d="M0.02,-3.93 L 3.89 3.61 -3.91 0.32" class="primitive"/>
  </g>
  <g transform="translate(152.18,87.11)">
    <path fill="none" d="M-2.72,-2.83 L 5.3 -0.12 -2.58 2.96" class="primitive"/>
  </g>
  <g transform="translate(133.02,94.51)">
    <path fill="none" d="M-1.25,-3.72 L 4.85 2.16 -3.6 1.57" class="primitive"/>
  </g>
  <g transform="translate(93.54,74.98)">
    <path fill="none" d="M1,3.8 L -4.7 -2.46 3.69 -1.33" class="primitive"/>
  </g>
  <g transform="translate(79.13,105.34)">
    <path fill="none" d="M3.6,1.56 L -4.84 2.16 1.24 -3.73" class="primitive"/>
  </g>
  <g transform="translate(106.51,73.96)">
    <path fill="none" d="M-0.52,3.89 L -3.4 -4.07 3.92 0.18" class="primitive"/>
  </g>
  <g transform="translate(146.29,74.42)">
    <path fill="none" d="M-3.64,-1.46 L 4.78 -2.29 -1.14 3.76" class="primitive"/>
  </g>
  <g transform="translate(105.1,66.7)">
    <path fill="none" d="M-1.07,3.78 L -2.78 -4.51 3.86 0.74" class="primitive"/>
  </g>
  <g transform="translate(122.02,69.6)">
    <path fill="none" d="M-3.38,2 L 1.09 -5.19 2.29 3.19" class="primitive"/>
  </g>
  <g transform="translate(88.94,90.1)">
    <path fill="none" d="M2.86,2.69 L -5.29 0.4 2.43 -3.09" class="primitive"/>
  </g>
  <g transform="translate(98.32,122.73)">
    <path fill="none" d="M3.83,-0.87 L -2.63 4.61 -1.2 -3.74" class="primitive"/>
  </g>
  <g transform="translate(148.1,81.02)">
    <path fill="none" d="M-3.23,-2.23 L 5.17 -1.19 -1.94 3.42" class="primitive"/>
  </g>
  <g transform="translate(144.7,101.16)">
    <path fill="none" d="M-1.08,-3.78 L 4.74 2.37 -3.67 1.41" class="primitive"/>
  </g>
  <g transform="translate(143,51.08)">
    <path fill="none" d="M-3.88,0.58 L 2.97 -4.4 0.92 3.82" class="primitive"/>
  </g>
  <g transform="translate(102.58,109.65)">
    <path fill="none" d="M3.9,-0.47 L -3.09 4.31 -0.81 -3.84" class="primitive"/>
  </g>
  <g transform="translate(66.94,179.02)">
    <path fill="none" d="M3.82,-0.91 L -2.58 4.63 -1.24 -3.73" class="primitive"/>
  </g>
  <g transform="translate(140.78,97.66)">
    <path fill="none" d="M-3.92,0.13 L 3.45 -4.03 0.48 3.9" class="primitive"/>
  </g>
  <g transform="translate(16.71,47.27)">
    <path fill="none" d="M-3.62,1.53 L 1.78 -5 1.84 3.47" class="primitive"/>
  </g>
  <g transform="translate(16.9,46.41)">
    <path fill="none" d="M2.42,-3.09 L 0.86 5.23 -3.29 -2.14" class="primitive"/>
  </g>
  <g transform="translate(48.77,119.16)">
    <path fill="none" d="M3.62,1.53 L -4.82 2.21 1.21 -3.74" class="primitive"/>
  </g>
  <g transform="translate(100.85,68.31)">
    <path fill="none" d="M3.75,-1.15 L -2.28 4.79 -1.48 -3.64" class="primitive"/>
  </g>
  <g transform="translate(103.94,67.85)">
    <path fill="none" d="M-2.37,-3.13 L 5.28 0.5 -2.91 2.63" class="primitive"/>
  </g>
  <g transform="translate(101.21,67.92)">
    <path fill="none" d="M-2.74,2.81 L -0.3 -5.3 3.04 2.48" class="primitive"/>
  </g>
  <g transform="translate(80.05,155.49)">
    <path fill="none" d="M3.82,-0.91 L -2.57 4.64 -1.25 -3.72" class="primitive"/>
  </g>
  <g transform="translate(165.15,28.47)">
    <path fill="none" d="M-3.91,-0.38 L 3.95 -3.54 -0.04 3.93" class="primitive"/>
  </g>
  <g transform="translate(154.81,24.72)">
    <path fill="none" d="M-3.63,1.49 L 1.83 -4.98 1.8 3.49" class="primitive"/>
  </g>
  <g transform="translate(97.51,115.6)">
    <path fill="none" d="M-2.01,3.37 L -1.53 -5.08 3.54 1.71" class="primitive"/>
  </g>
  <g transform="translate(96.31,121.91)">
    <path fill="none" d="M3.47,-1.84 L -1.34 5.13 -2.13 -3.3" class="primitive"/>
  </g>
</g>
<g font-size="4" stroke="#000000" stroke-opacity="0.000" fill="#000000" id="img-d120b03b-3">
</g>
<g stroke-width="0" stroke="#000000" stroke-opacity="0.000" fill="#40E0D0" id="img-d120b03b-4">
  <g transform="translate(19.49,39.45)">
    <circle cx="0" cy="0" r="2.87" class="primitive"/>
  </g>
  <g transform="translate(97.29,75.81)">
    <circle cx="0" cy="0" r="2.87" class="primitive"/>
  </g>
  <g transform="translate(33.59,28.83)">
    <circle cx="0" cy="0" r="2.87" class="primitive"/>
  </g>
  <g transform="translate(186.27,148.7)">
    <circle cx="0" cy="0" r="2.87" class="primitive"/>
  </g>
  <g transform="translate(82.73,81.52)">
    <circle cx="0" cy="0" r="2.87" class="primitive"/>
  </g>
  <g transform="translate(110.45,106.79)">
    <circle cx="0" cy="0" r="2.87" class="primitive"/>
  </g>
  <g transform="translate(18.25,54.6)">
    <circle cx="0" cy="0" r="2.87" class="primitive"/>
  </g>
  <g transform="translate(133.33,115.96)">
    <circle cx="0" cy="0" r="2.87" class="primitive"/>
  </g>
  <g transform="translate(127.32,105.69)">
    <circle cx="0" cy="0" r="2.87" class="primitive"/>
  </g>
  <g transform="translate(141.49,79.98)">
    <circle cx="0" cy="0" r="2.87" class="primitive"/>
  </g>
  <g transform="translate(158.62,96.33)">
    <circle cx="0" cy="0" r="2.87" class="primitive"/>
  </g>
  <g transform="translate(114.74,55.98)">
    <circle cx="0" cy="0" r="2.87" class="primitive"/>
  </g>
  <g transform="translate(96.29,91.28)">
    <circle cx="0" cy="0" r="2.87" class="primitive"/>
  </g>
  <g transform="translate(146.17,91.36)">
    <circle cx="0" cy="0" r="2.87" class="primitive"/>
  </g>
  <g transform="translate(122.34,119.02)">
    <circle cx="0" cy="0" r="2.87" class="primitive"/>
  </g>
  <g transform="translate(158.1,133.25)">
    <circle cx="0" cy="0" r="2.87" class="primitive"/>
  </g>
  <g transform="translate(62.9,186.27)">
    <circle cx="0" cy="0" r="2.87" class="primitive"/>
  </g>
  <g transform="translate(41.22,122.62)">
    <circle cx="0" cy="0" r="2.87" class="primitive"/>
  </g>
  <g transform="translate(131.68,71.82)">
    <circle cx="0" cy="0" r="2.87" class="primitive"/>
  </g>
  <g transform="translate(50.08,50.92)">
    <circle cx="0" cy="0" r="2.87" class="primitive"/>
  </g>
  <g transform="translate(95.12,107.65)">
    <circle cx="0" cy="0" r="2.87" class="primitive"/>
  </g>
  <g transform="translate(179.43,155.06)">
    <circle cx="0" cy="0" r="2.87" class="primitive"/>
  </g>
  <g transform="translate(86.65,99.73)">
    <circle cx="0" cy="0" r="2.87" class="primitive"/>
  </g>
  <g transform="translate(112.2,68.63)">
    <circle cx="0" cy="0" r="2.87" class="primitive"/>
  </g>
  <g transform="translate(134.91,59.62)">
    <circle cx="0" cy="0" r="2.87" class="primitive"/>
  </g>
  <g transform="translate(111.56,115.51)">
    <circle cx="0" cy="0" r="2.87" class="primitive"/>
  </g>
  <g transform="translate(118.17,87.9)">
    <circle cx="0" cy="0" r="2.87" class="primitive"/>
  </g>
  <g transform="translate(44.74,25.34)">
    <circle cx="0" cy="0" r="2.87" class="primitive"/>
  </g>
  <g transform="translate(144.78,65.72)">
    <circle cx="0" cy="0" r="2.87" class="primitive"/>
  </g>
  <g transform="translate(171.32,22.93)">
    <circle cx="0" cy="0" r="2.87" class="primitive"/>
  </g>
  <g transform="translate(143.43,111.33)">
    <circle cx="0" cy="0" r="2.87" class="primitive"/>
  </g>
  <g transform="translate(160.47,86.91)">
    <circle cx="0" cy="0" r="2.87" class="primitive"/>
  </g>
  <g transform="translate(76.02,162.74)">
    <circle cx="0" cy="0" r="2.87" class="primitive"/>
  </g>
  <g transform="translate(140.6,97.88)">
    <circle cx="0" cy="0" r="2.87" class="primitive"/>
  </g>
  <g transform="translate(86.19,71.13)">
    <circle cx="0" cy="0" r="2.87" class="primitive"/>
  </g>
  <g transform="translate(16.93,46.63)">
    <circle cx="0" cy="0" r="2.87" class="primitive"/>
  </g>
  <g transform="translate(71.55,108.73)">
    <circle cx="0" cy="0" r="2.87" class="primitive"/>
  </g>
  <g transform="translate(101.19,67.59)">
    <circle cx="0" cy="0" r="2.87" class="primitive"/>
  </g>
  <g transform="translate(153.77,70.83)">
    <circle cx="0" cy="0" r="2.87" class="primitive"/>
  </g>
  <g transform="translate(166.28,159.93)">
    <circle cx="0" cy="0" r="2.87" class="primitive"/>
  </g>
  <g transform="translate(100.74,59.64)">
    <circle cx="0" cy="0" r="2.87" class="primitive"/>
  </g>
  <g transform="translate(24.89,30.9)">
    <circle cx="0" cy="0" r="2.87" class="primitive"/>
  </g>
  <g transform="translate(123.73,61.48)">
    <circle cx="0" cy="0" r="2.87" class="primitive"/>
  </g>
  <g transform="translate(80.67,90.72)">
    <circle cx="0" cy="0" r="2.87" class="primitive"/>
  </g>
  <g transform="translate(94.21,129.94)">
    <circle cx="0" cy="0" r="2.87" class="primitive"/>
  </g>
  <g transform="translate(157.67,16.93)">
    <circle cx="0" cy="0" r="2.87" class="primitive"/>
  </g>
  <g transform="translate(156.19,79.17)">
    <circle cx="0" cy="0" r="2.87" class="primitive"/>
  </g>
  <g transform="translate(152.12,104.87)">
    <circle cx="0" cy="0" r="2.87" class="primitive"/>
  </g>
  <g transform="translate(147.64,44.2)">
    <circle cx="0" cy="0" r="2.87" class="primitive"/>
  </g>
  <g transform="translate(97.75,116.4)">
    <circle cx="0" cy="0" r="2.87" class="primitive"/>
  </g>
</g>
<g font-size="4" stroke="#000000" stroke-opacity="0.000" fill="#000000" id="img-d120b03b-5">
  <g transform="translate(19.49,39.45)">
    <g class="primitive">
      <text text-anchor="middle" dy="0.35em">CompEcon</text>
    </g>
  </g>
  <g transform="translate(97.29,75.81)">
    <g class="primitive">
      <text text-anchor="middle" dy="0.35em">Circuitscape</text>
    </g>
  </g>
  <g transform="translate(33.59,28.83)">
    <g class="primitive">
      <text text-anchor="middle" dy="0.35em">StateSpaceRoutines</text>
    </g>
  </g>
  <g transform="translate(186.27,148.7)">
    <g class="primitive">
      <text text-anchor="middle" dy="0.35em">DiffEqBayes</text>
    </g>
  </g>
  <g transform="translate(82.73,81.52)">
    <g class="primitive">
      <text text-anchor="middle" dy="0.35em">ItemGraphs</text>
    </g>
  </g>
  <g transform="translate(110.45,106.79)">
    <g class="primitive">
      <text text-anchor="middle" dy="0.35em">MetaGraphs</text>
    </g>
  </g>
  <g transform="translate(18.25,54.6)">
    <g class="primitive">
      <text text-anchor="middle" dy="0.35em">Dolo</text>
    </g>
  </g>
  <g transform="translate(133.33,115.96)">
    <g class="primitive">
      <text text-anchor="middle" dy="0.35em">Dispatcher</text>
    </g>
  </g>
  <g transform="translate(127.32,105.69)">
    <g class="primitive">
      <text text-anchor="middle" dy="0.35em">CausalInference</text>
    </g>
  </g>
  <g transform="translate(141.49,79.98)">
    <g class="primitive">
      <text text-anchor="middle" dy="0.35em">CommunityDetection</text>
    </g>
  </g>
  <g transform="translate(158.62,96.33)">
    <g class="primitive">
      <text text-anchor="middle" dy="0.35em">LightGraphsMatching</text>
    </g>
  </g>
  <g transform="translate(114.74,55.98)">
    <g class="primitive">
      <text text-anchor="middle" dy="0.35em">GraphIO</text>
    </g>
  </g>
  <g transform="translate(96.29,91.28)">
    <g class="primitive">
      <text text-anchor="middle" dy="0.35em">LightGraphsExtras</text>
    </g>
  </g>
  <g transform="translate(146.17,91.36)">
    <g class="primitive">
      <text text-anchor="middle" dy="0.35em">ImageQuilting</text>
    </g>
  </g>
  <g transform="translate(122.34,119.02)">
    <g class="primitive">
      <text text-anchor="middle" dy="0.35em">RobustShortestPath</text>
    </g>
  </g>
  <g transform="translate(158.1,133.25)">
    <g class="primitive">
      <text text-anchor="middle" dy="0.35em">Mamba</text>
    </g>
  </g>
  <g transform="translate(62.9,186.27)">
    <g class="primitive">
      <text text-anchor="middle" dy="0.35em">ExprOptimization</text>
    </g>
  </g>
  <g transform="translate(41.22,122.62)">
    <g class="primitive">
      <text text-anchor="middle" dy="0.35em">DynaWAVE</text>
    </g>
  </g>
  <g transform="translate(131.68,71.82)">
    <g class="primitive">
      <text text-anchor="middle" dy="0.35em">SNAPDatasets</text>
    </g>
  </g>
  <g transform="translate(50.08,50.92)">
    <g class="primitive">
      <text text-anchor="middle" dy="0.35em">QuantEcon</text>
    </g>
  </g>
  <g transform="translate(95.12,107.65)">
    <g class="primitive">
      <text text-anchor="middle" dy="0.35em">BayesNets</text>
    </g>
  </g>
  <g transform="translate(179.43,155.06)">
    <g class="primitive">
      <text text-anchor="middle" dy="0.35em">Turing</text>
    </g>
  </g>
  <g transform="translate(86.65,99.73)">
    <g class="primitive">
      <text text-anchor="middle" dy="0.35em">HybridSystems</text>
    </g>
  </g>
  <g transform="translate(112.2,68.63)">
    <g class="primitive">
      <text text-anchor="middle" dy="0.35em">ImageSegmentation</text>
    </g>
  </g>
  <g transform="translate(134.91,59.62)">
    <g class="primitive">
      <text text-anchor="middle" dy="0.35em">CombinatorialBandits</text>
    </g>
  </g>
  <g transform="translate(111.56,115.51)">
    <g class="primitive">
      <text text-anchor="middle" dy="0.35em">GraphDataFrameBridge</text>
    </g>
  </g>
  <g transform="translate(118.17,87.9)">
    <g class="primitive">
      <text text-anchor="middle" dy="0.35em">LightGraphs</text>
    </g>
  </g>
  <g transform="translate(44.74,25.34)">
    <g class="primitive">
      <text text-anchor="middle" dy="0.35em">Augur</text>
    </g>
  </g>
  <g transform="translate(144.78,65.72)">
    <g class="primitive">
      <text text-anchor="middle" dy="0.35em">Graph500</text>
    </g>
  </g>
  <g transform="translate(171.32,22.93)">
    <g class="primitive">
      <text text-anchor="middle" dy="0.35em">BioArgParse</text>
    </g>
  </g>
  <g transform="translate(143.43,111.33)">
    <g class="primitive">
      <text text-anchor="middle" dy="0.35em">EllipticFEM</text>
    </g>
  </g>
  <g transform="translate(160.47,86.91)">
    <g class="primitive">
      <text text-anchor="middle" dy="0.35em">Phylogenies</text>
    </g>
  </g>
  <g transform="translate(76.02,162.74)">
    <g class="primitive">
      <text text-anchor="middle" dy="0.35em">ExprRules</text>
    </g>
  </g>
  <g transform="translate(140.6,97.88)">
    <g class="primitive">
      <text text-anchor="middle" dy="0.35em">LightGraphsFlows</text>
    </g>
  </g>
  <g transform="translate(86.19,71.13)">
    <g class="primitive">
      <text text-anchor="middle" dy="0.35em">Metis</text>
    </g>
  </g>
  <g transform="translate(16.93,46.63)">
    <g class="primitive">
      <text text-anchor="middle" dy="0.35em">BasisMatrices</text>
    </g>
  </g>
  <g transform="translate(71.55,108.73)">
    <g class="primitive">
      <text text-anchor="middle" dy="0.35em">NetalignUtils</text>
    </g>
  </g>
  <g transform="translate(101.19,67.59)">
    <g class="primitive">
      <text text-anchor="middle" dy="0.35em">SimpleWeightedGraphs</text>
    </g>
  </g>
  <g transform="translate(153.77,70.83)">
    <g class="primitive">
      <text text-anchor="middle" dy="0.35em">GraphPlot</text>
    </g>
  </g>
  <g transform="translate(166.28,159.93)">
    <g class="primitive">
      <text text-anchor="middle" dy="0.35em">Jags</text>
    </g>
  </g>
  <g transform="translate(100.74,59.64)">
    <g class="primitive">
      <text text-anchor="middle" dy="0.35em">NetworkLearning</text>
    </g>
  </g>
  <g transform="translate(24.89,30.9)">
    <g class="primitive">
      <text text-anchor="middle" dy="0.35em">DSGE</text>
    </g>
  </g>
  <g transform="translate(123.73,61.48)">
    <g class="primitive">
      <text text-anchor="middle" dy="0.35em">NetworkViz</text>
    </g>
  </g>
  <g transform="translate(80.67,90.72)">
    <g class="primitive">
      <text text-anchor="middle" dy="0.35em">FractionalGaussianFields</text>
    </g>
  </g>
  <g transform="translate(94.21,129.94)">
    <g class="primitive">
      <text text-anchor="middle" dy="0.35em">TreeView</text>
    </g>
  </g>
  <g transform="translate(157.67,16.93)">
    <g class="primitive">
      <text text-anchor="middle" dy="0.35em">SpeedDate</text>
    </g>
  </g>
  <g transform="translate(156.19,79.17)">
    <g class="primitive">
      <text text-anchor="middle" dy="0.35em">TrafficAssignment</text>
    </g>
  </g>
  <g transform="translate(152.12,104.87)">
    <g class="primitive">
      <text text-anchor="middle" dy="0.35em">GraphGLRM</text>
    </g>
  </g>
  <g transform="translate(147.64,44.2)">
    <g class="primitive">
      <text text-anchor="middle" dy="0.35em">Bio</text>
    </g>
  </g>
  <g transform="translate(97.75,116.4)">
    <g class="primitive">
      <text text-anchor="middle" dy="0.35em">TikzGraphs</text>
    </g>
  </g>
</g>
</svg>
